<mxfile host="app.diagrams.net" modified="2020-09-29T13:42:54.491Z" agent="5.0 (Macintosh; Intel Mac OS X 10_14_6) AppleWebKit/537.36 (KHTML, like Gecko) Chrome/85.0.4183.121 Safari/537.36" etag="IgXO2cuCyCDvc_owKH6d" version="13.7.4" type="github">
  <diagram id="N78oST3sVvhrRYNXZbkb" name="Page-1">
    <mxGraphModel dx="818" dy="453" grid="1" gridSize="10" guides="1" tooltips="1" connect="1" arrows="1" fold="1" page="1" pageScale="1" pageWidth="850" pageHeight="1100" math="0" shadow="0">
      <root>
        <mxCell id="0" />
        <mxCell id="1" parent="0" />
        <mxCell id="s2mc7PKK1Hd6kCjjpV02-1" value="Person" style="rounded=0;whiteSpace=wrap;html=1;" vertex="1" parent="1">
          <mxGeometry x="200" y="120" width="80" height="40" as="geometry" />
        </mxCell>
        <mxCell id="s2mc7PKK1Hd6kCjjpV02-2" value="" style="endArrow=none;html=1;entryX=0.25;entryY=0;entryDx=0;entryDy=0;exitX=0.5;exitY=1;exitDx=0;exitDy=0;" edge="1" parent="1" source="s2mc7PKK1Hd6kCjjpV02-3" target="s2mc7PKK1Hd6kCjjpV02-1">
          <mxGeometry width="50" height="50" relative="1" as="geometry">
            <mxPoint x="100" y="90" as="sourcePoint" />
            <mxPoint x="450" y="170" as="targetPoint" />
          </mxGeometry>
        </mxCell>
        <mxCell id="s2mc7PKK1Hd6kCjjpV02-3" value="Dog" style="ellipse;whiteSpace=wrap;html=1;" vertex="1" parent="1">
          <mxGeometry x="130" y="60" width="80" height="30" as="geometry" />
        </mxCell>
        <mxCell id="s2mc7PKK1Hd6kCjjpV02-4" value="" style="endArrow=none;html=1;exitX=0.75;exitY=0;exitDx=0;exitDy=0;entryX=0.5;entryY=1;entryDx=0;entryDy=0;" edge="1" parent="1" source="s2mc7PKK1Hd6kCjjpV02-1" target="s2mc7PKK1Hd6kCjjpV02-6">
          <mxGeometry width="50" height="50" relative="1" as="geometry">
            <mxPoint x="400" y="220" as="sourcePoint" />
            <mxPoint x="230" y="90" as="targetPoint" />
          </mxGeometry>
        </mxCell>
        <mxCell id="s2mc7PKK1Hd6kCjjpV02-6" value="&lt;u&gt;ID#&lt;/u&gt;" style="ellipse;whiteSpace=wrap;html=1;" vertex="1" parent="1">
          <mxGeometry x="270" y="60" width="80" height="30" as="geometry" />
        </mxCell>
        <mxCell id="s2mc7PKK1Hd6kCjjpV02-7" value="" style="endArrow=none;html=1;entryX=0.5;entryY=1;entryDx=0;entryDy=0;" edge="1" parent="1" target="s2mc7PKK1Hd6kCjjpV02-1">
          <mxGeometry width="50" height="50" relative="1" as="geometry">
            <mxPoint x="240" y="210" as="sourcePoint" />
            <mxPoint x="450" y="230" as="targetPoint" />
          </mxGeometry>
        </mxCell>
        <mxCell id="s2mc7PKK1Hd6kCjjpV02-8" value="" style="triangle;whiteSpace=wrap;html=1;direction=north;" vertex="1" parent="1">
          <mxGeometry x="200" y="210" width="80" height="60" as="geometry" />
        </mxCell>
        <mxCell id="s2mc7PKK1Hd6kCjjpV02-9" value="" style="endArrow=none;html=1;entryX=0;entryY=0.25;entryDx=0;entryDy=0;exitX=0.5;exitY=0;exitDx=0;exitDy=0;" edge="1" parent="1" source="s2mc7PKK1Hd6kCjjpV02-11" target="s2mc7PKK1Hd6kCjjpV02-8">
          <mxGeometry width="50" height="50" relative="1" as="geometry">
            <mxPoint x="160" y="320" as="sourcePoint" />
            <mxPoint x="450" y="230" as="targetPoint" />
          </mxGeometry>
        </mxCell>
        <mxCell id="s2mc7PKK1Hd6kCjjpV02-10" value="" style="endArrow=none;html=1;entryX=0;entryY=0.75;entryDx=0;entryDy=0;exitX=0.5;exitY=0;exitDx=0;exitDy=0;" edge="1" parent="1" source="s2mc7PKK1Hd6kCjjpV02-12" target="s2mc7PKK1Hd6kCjjpV02-8">
          <mxGeometry width="50" height="50" relative="1" as="geometry">
            <mxPoint x="360" y="320" as="sourcePoint" />
            <mxPoint x="450" y="230" as="targetPoint" />
          </mxGeometry>
        </mxCell>
        <mxCell id="s2mc7PKK1Hd6kCjjpV02-11" value="Blue" style="rounded=0;whiteSpace=wrap;html=1;" vertex="1" parent="1">
          <mxGeometry x="80" y="320" width="80" height="40" as="geometry" />
        </mxCell>
        <mxCell id="s2mc7PKK1Hd6kCjjpV02-12" value="Green" style="rounded=0;whiteSpace=wrap;html=1;" vertex="1" parent="1">
          <mxGeometry x="400" y="320" width="80" height="40" as="geometry" />
        </mxCell>
        <mxCell id="s2mc7PKK1Hd6kCjjpV02-14" value="" style="endArrow=none;html=1;exitX=1;exitY=0.5;exitDx=0;exitDy=0;entryX=0;entryY=0.5;entryDx=0;entryDy=0;" edge="1" parent="1" source="s2mc7PKK1Hd6kCjjpV02-11" target="s2mc7PKK1Hd6kCjjpV02-38">
          <mxGeometry width="50" height="50" relative="1" as="geometry">
            <mxPoint x="400" y="280" as="sourcePoint" />
            <mxPoint x="205" y="340" as="targetPoint" />
          </mxGeometry>
        </mxCell>
        <mxCell id="s2mc7PKK1Hd6kCjjpV02-15" value="" style="endArrow=none;html=1;exitX=1;exitY=0.5;exitDx=0;exitDy=0;entryX=0;entryY=0.5;entryDx=0;entryDy=0;" edge="1" parent="1" target="s2mc7PKK1Hd6kCjjpV02-12">
          <mxGeometry width="50" height="50" relative="1" as="geometry">
            <mxPoint x="275" y="340" as="sourcePoint" />
            <mxPoint x="310" y="340" as="targetPoint" />
          </mxGeometry>
        </mxCell>
        <mxCell id="s2mc7PKK1Hd6kCjjpV02-16" value="Country" style="ellipse;whiteSpace=wrap;html=1;" vertex="1" parent="1">
          <mxGeometry x="165" y="490" width="80" height="30" as="geometry" />
        </mxCell>
        <mxCell id="s2mc7PKK1Hd6kCjjpV02-17" value="" style="endArrow=none;html=1;exitX=0.5;exitY=1;exitDx=0;exitDy=0;entryX=0.5;entryY=0;entryDx=0;entryDy=0;" edge="1" parent="1" source="s2mc7PKK1Hd6kCjjpV02-38" target="s2mc7PKK1Hd6kCjjpV02-39">
          <mxGeometry width="50" height="50" relative="1" as="geometry">
            <mxPoint x="240" y="355" as="sourcePoint" />
            <mxPoint x="240" y="380" as="targetPoint" />
          </mxGeometry>
        </mxCell>
        <mxCell id="s2mc7PKK1Hd6kCjjpV02-18" value="" style="endArrow=none;html=1;entryX=0;entryY=0.5;entryDx=0;entryDy=0;" edge="1" parent="1" target="s2mc7PKK1Hd6kCjjpV02-27">
          <mxGeometry width="50" height="50" relative="1" as="geometry">
            <mxPoint x="610" y="340" as="sourcePoint" />
            <mxPoint x="680" y="340" as="targetPoint" />
          </mxGeometry>
        </mxCell>
        <mxCell id="s2mc7PKK1Hd6kCjjpV02-19" value="Dislikes" style="rhombus;whiteSpace=wrap;html=1;" vertex="1" parent="1">
          <mxGeometry x="85" y="410" width="70" height="30" as="geometry" />
        </mxCell>
        <mxCell id="s2mc7PKK1Hd6kCjjpV02-20" value="" style="endArrow=none;html=1;entryX=0;entryY=0.5;entryDx=0;entryDy=0;exitX=0;exitY=0.5;exitDx=0;exitDy=0;" edge="1" parent="1" source="s2mc7PKK1Hd6kCjjpV02-19" target="s2mc7PKK1Hd6kCjjpV02-11">
          <mxGeometry width="50" height="50" relative="1" as="geometry">
            <mxPoint x="80" y="430" as="sourcePoint" />
            <mxPoint x="450" y="230" as="targetPoint" />
            <Array as="points">
              <mxPoint x="80" y="425" />
            </Array>
          </mxGeometry>
        </mxCell>
        <mxCell id="s2mc7PKK1Hd6kCjjpV02-21" value="" style="endArrow=classic;html=1;exitX=1;exitY=0.5;exitDx=0;exitDy=0;entryX=1;entryY=1;entryDx=0;entryDy=0;" edge="1" parent="1" source="s2mc7PKK1Hd6kCjjpV02-19" target="s2mc7PKK1Hd6kCjjpV02-11">
          <mxGeometry width="50" height="50" relative="1" as="geometry">
            <mxPoint x="400" y="280" as="sourcePoint" />
            <mxPoint x="450" y="230" as="targetPoint" />
            <Array as="points">
              <mxPoint x="160" y="425" />
            </Array>
          </mxGeometry>
        </mxCell>
        <mxCell id="s2mc7PKK1Hd6kCjjpV02-22" value="Manages" style="rhombus;whiteSpace=wrap;html=1;" vertex="1" parent="1">
          <mxGeometry x="405" y="410" width="70" height="30" as="geometry" />
        </mxCell>
        <mxCell id="s2mc7PKK1Hd6kCjjpV02-23" value="" style="endArrow=classic;html=1;exitX=0;exitY=0.5;exitDx=0;exitDy=0;entryX=0;entryY=1;entryDx=0;entryDy=0;" edge="1" parent="1" source="s2mc7PKK1Hd6kCjjpV02-22" target="s2mc7PKK1Hd6kCjjpV02-12">
          <mxGeometry width="50" height="50" relative="1" as="geometry">
            <mxPoint x="400" y="280" as="sourcePoint" />
            <mxPoint x="450" y="230" as="targetPoint" />
            <Array as="points">
              <mxPoint x="400" y="425" />
            </Array>
          </mxGeometry>
        </mxCell>
        <mxCell id="s2mc7PKK1Hd6kCjjpV02-24" value="" style="endArrow=classic;html=1;entryX=1;entryY=1;entryDx=0;entryDy=0;" edge="1" parent="1" target="s2mc7PKK1Hd6kCjjpV02-12">
          <mxGeometry width="50" height="50" relative="1" as="geometry">
            <mxPoint x="480" y="425" as="sourcePoint" />
            <mxPoint x="450" y="230" as="targetPoint" />
            <Array as="points">
              <mxPoint x="470" y="425" />
              <mxPoint x="480" y="425" />
            </Array>
          </mxGeometry>
        </mxCell>
        <mxCell id="s2mc7PKK1Hd6kCjjpV02-25" value="" style="endArrow=classic;html=1;" edge="1" parent="1">
          <mxGeometry width="50" height="50" relative="1" as="geometry">
            <mxPoint x="540" y="340" as="sourcePoint" />
            <mxPoint x="480" y="340" as="targetPoint" />
          </mxGeometry>
        </mxCell>
        <mxCell id="s2mc7PKK1Hd6kCjjpV02-27" value="Cat" style="rounded=0;whiteSpace=wrap;html=1;" vertex="1" parent="1">
          <mxGeometry x="685" y="320" width="80" height="40" as="geometry" />
        </mxCell>
        <mxCell id="s2mc7PKK1Hd6kCjjpV02-29" value="" style="endArrow=none;html=1;exitX=0.25;exitY=0;exitDx=0;exitDy=0;" edge="1" parent="1" source="s2mc7PKK1Hd6kCjjpV02-11">
          <mxGeometry width="50" height="50" relative="1" as="geometry">
            <mxPoint x="400" y="280" as="sourcePoint" />
            <mxPoint x="690" y="530" as="targetPoint" />
            <Array as="points">
              <mxPoint x="100" y="280" />
              <mxPoint x="40" y="280" />
              <mxPoint x="40" y="460" />
              <mxPoint x="40" y="530" />
            </Array>
          </mxGeometry>
        </mxCell>
        <mxCell id="s2mc7PKK1Hd6kCjjpV02-31" value="Likes" style="rhombus;whiteSpace=wrap;html=1;" vertex="1" parent="1">
          <mxGeometry x="687.5" y="510" width="75" height="40" as="geometry" />
        </mxCell>
        <mxCell id="s2mc7PKK1Hd6kCjjpV02-33" value="" style="endArrow=classic;html=1;entryX=0.5;entryY=1;entryDx=0;entryDy=0;exitX=0.5;exitY=0;exitDx=0;exitDy=0;" edge="1" parent="1" source="s2mc7PKK1Hd6kCjjpV02-31" target="s2mc7PKK1Hd6kCjjpV02-27">
          <mxGeometry width="50" height="50" relative="1" as="geometry">
            <mxPoint x="400" y="280" as="sourcePoint" />
            <mxPoint x="450" y="230" as="targetPoint" />
          </mxGeometry>
        </mxCell>
        <mxCell id="s2mc7PKK1Hd6kCjjpV02-38" value="Together" style="shape=associativeEntity;whiteSpace=wrap;html=1;align=center;" vertex="1" parent="1">
          <mxGeometry x="240" y="320" width="85" height="40" as="geometry" />
        </mxCell>
        <mxCell id="s2mc7PKK1Hd6kCjjpV02-39" value="Friend" style="rounded=0;whiteSpace=wrap;html=1;" vertex="1" parent="1">
          <mxGeometry x="242.5" y="390" width="80" height="40" as="geometry" />
        </mxCell>
        <mxCell id="s2mc7PKK1Hd6kCjjpV02-26" value="Belongs" style="rhombus;whiteSpace=wrap;html=1;" vertex="1" parent="1">
          <mxGeometry x="540" y="325" width="70" height="30" as="geometry" />
        </mxCell>
        <mxCell id="s2mc7PKK1Hd6kCjjpV02-40" value="" style="endArrow=none;html=1;" edge="1" parent="1" target="s2mc7PKK1Hd6kCjjpV02-26">
          <mxGeometry width="50" height="50" relative="1" as="geometry">
            <mxPoint x="540" y="340" as="sourcePoint" />
            <mxPoint x="610" y="340" as="targetPoint" />
          </mxGeometry>
        </mxCell>
        <mxCell id="s2mc7PKK1Hd6kCjjpV02-41" value="Approves" style="rhombus;whiteSpace=wrap;html=1;" vertex="1" parent="1">
          <mxGeometry x="170" y="450" width="70" height="30" as="geometry" />
        </mxCell>
        <mxCell id="s2mc7PKK1Hd6kCjjpV02-43" value="" style="endArrow=none;html=1;exitX=1;exitY=0.5;exitDx=0;exitDy=0;entryX=0.25;entryY=1;entryDx=0;entryDy=0;" edge="1" parent="1" source="s2mc7PKK1Hd6kCjjpV02-41" target="s2mc7PKK1Hd6kCjjpV02-39">
          <mxGeometry width="50" height="50" relative="1" as="geometry">
            <mxPoint x="280" y="410" as="sourcePoint" />
            <mxPoint x="330" y="360" as="targetPoint" />
            <Array as="points">
              <mxPoint x="263" y="465" />
            </Array>
          </mxGeometry>
        </mxCell>
        <mxCell id="s2mc7PKK1Hd6kCjjpV02-44" value="" style="endArrow=none;html=1;entryX=0.5;entryY=1;entryDx=0;entryDy=0;exitX=0.5;exitY=0;exitDx=0;exitDy=0;" edge="1" parent="1" source="s2mc7PKK1Hd6kCjjpV02-16" target="s2mc7PKK1Hd6kCjjpV02-41">
          <mxGeometry width="50" height="50" relative="1" as="geometry">
            <mxPoint x="310" y="570" as="sourcePoint" />
            <mxPoint x="360" y="520" as="targetPoint" />
          </mxGeometry>
        </mxCell>
        <mxCell id="s2mc7PKK1Hd6kCjjpV02-45" value="" style="endArrow=none;html=1;exitX=0;exitY=0.5;exitDx=0;exitDy=0;entryX=1;entryY=0.75;entryDx=0;entryDy=0;" edge="1" parent="1" source="s2mc7PKK1Hd6kCjjpV02-41" target="s2mc7PKK1Hd6kCjjpV02-11">
          <mxGeometry width="50" height="50" relative="1" as="geometry">
            <mxPoint x="310" y="490" as="sourcePoint" />
            <mxPoint x="360" y="440" as="targetPoint" />
            <Array as="points">
              <mxPoint x="170" y="350" />
            </Array>
          </mxGeometry>
        </mxCell>
        <mxCell id="s2mc7PKK1Hd6kCjjpV02-46" value="Approves" style="rhombus;whiteSpace=wrap;html=1;" vertex="1" parent="1">
          <mxGeometry x="320" y="450" width="70" height="30" as="geometry" />
        </mxCell>
        <mxCell id="s2mc7PKK1Hd6kCjjpV02-47" value="Country" style="ellipse;whiteSpace=wrap;html=1;" vertex="1" parent="1">
          <mxGeometry x="315" y="490" width="80" height="30" as="geometry" />
        </mxCell>
        <mxCell id="s2mc7PKK1Hd6kCjjpV02-48" value="" style="endArrow=none;html=1;entryX=0.5;entryY=1;entryDx=0;entryDy=0;" edge="1" parent="1" source="s2mc7PKK1Hd6kCjjpV02-47" target="s2mc7PKK1Hd6kCjjpV02-46">
          <mxGeometry width="50" height="50" relative="1" as="geometry">
            <mxPoint x="215" y="500" as="sourcePoint" />
            <mxPoint x="215" y="490" as="targetPoint" />
          </mxGeometry>
        </mxCell>
        <mxCell id="s2mc7PKK1Hd6kCjjpV02-49" value="" style="endArrow=none;html=1;entryX=0.75;entryY=1;entryDx=0;entryDy=0;exitX=0;exitY=0.5;exitDx=0;exitDy=0;" edge="1" parent="1" source="s2mc7PKK1Hd6kCjjpV02-46" target="s2mc7PKK1Hd6kCjjpV02-39">
          <mxGeometry width="50" height="50" relative="1" as="geometry">
            <mxPoint x="310" y="490" as="sourcePoint" />
            <mxPoint x="360" y="440" as="targetPoint" />
            <Array as="points">
              <mxPoint x="303" y="465" />
            </Array>
          </mxGeometry>
        </mxCell>
        <mxCell id="s2mc7PKK1Hd6kCjjpV02-50" value="" style="endArrow=none;html=1;entryX=0;entryY=0.75;entryDx=0;entryDy=0;exitX=1;exitY=0.5;exitDx=0;exitDy=0;" edge="1" parent="1" source="s2mc7PKK1Hd6kCjjpV02-46" target="s2mc7PKK1Hd6kCjjpV02-12">
          <mxGeometry width="50" height="50" relative="1" as="geometry">
            <mxPoint x="310" y="490" as="sourcePoint" />
            <mxPoint x="360" y="440" as="targetPoint" />
            <Array as="points">
              <mxPoint x="390" y="350" />
            </Array>
          </mxGeometry>
        </mxCell>
        <mxCell id="s2mc7PKK1Hd6kCjjpV02-51" value="Name" style="ellipse;whiteSpace=wrap;html=1;" vertex="1" parent="1">
          <mxGeometry x="600" y="260" width="70" height="30" as="geometry" />
        </mxCell>
        <mxCell id="s2mc7PKK1Hd6kCjjpV02-53" value="BirthDate" style="ellipse;whiteSpace=wrap;html=1;" vertex="1" parent="1">
          <mxGeometry x="690" y="260" width="70" height="30" as="geometry" />
        </mxCell>
        <mxCell id="s2mc7PKK1Hd6kCjjpV02-55" value="Weight" style="ellipse;whiteSpace=wrap;html=1;" vertex="1" parent="1">
          <mxGeometry x="780" y="260" width="70" height="30" as="geometry" />
        </mxCell>
        <mxCell id="s2mc7PKK1Hd6kCjjpV02-56" value="" style="endArrow=none;html=1;entryX=0.5;entryY=1;entryDx=0;entryDy=0;exitX=0.25;exitY=0;exitDx=0;exitDy=0;" edge="1" parent="1" source="s2mc7PKK1Hd6kCjjpV02-27" target="s2mc7PKK1Hd6kCjjpV02-51">
          <mxGeometry width="50" height="50" relative="1" as="geometry">
            <mxPoint x="470" y="370" as="sourcePoint" />
            <mxPoint x="520" y="320" as="targetPoint" />
          </mxGeometry>
        </mxCell>
        <mxCell id="s2mc7PKK1Hd6kCjjpV02-57" value="" style="endArrow=none;html=1;entryX=0.5;entryY=1;entryDx=0;entryDy=0;exitX=0.5;exitY=0;exitDx=0;exitDy=0;" edge="1" parent="1" source="s2mc7PKK1Hd6kCjjpV02-27" target="s2mc7PKK1Hd6kCjjpV02-53">
          <mxGeometry width="50" height="50" relative="1" as="geometry">
            <mxPoint x="470" y="370" as="sourcePoint" />
            <mxPoint x="520" y="320" as="targetPoint" />
          </mxGeometry>
        </mxCell>
        <mxCell id="s2mc7PKK1Hd6kCjjpV02-58" value="" style="endArrow=none;html=1;entryX=0.5;entryY=1;entryDx=0;entryDy=0;exitX=0.75;exitY=0;exitDx=0;exitDy=0;" edge="1" parent="1" source="s2mc7PKK1Hd6kCjjpV02-27" target="s2mc7PKK1Hd6kCjjpV02-55">
          <mxGeometry width="50" height="50" relative="1" as="geometry">
            <mxPoint x="470" y="370" as="sourcePoint" />
            <mxPoint x="520" y="320" as="targetPoint" />
          </mxGeometry>
        </mxCell>
      </root>
    </mxGraphModel>
  </diagram>
</mxfile>
